<?xml version="1.0" standalone="no"?>
<!DOCTYPE svg PUBLIC "-//W3C//DTD SVG 20010904//EN"
 "http://www.w3.org/TR/2001/REC-SVG-20010904/DTD/svg10.dtd">
<svg version="1.0" xmlns="http://www.w3.org/2000/svg"
 width="500.000000pt" height="500.000000pt" viewBox="0 0 500.000000 500.000000"
 preserveAspectRatio="xMidYMid meet">

<g transform="translate(0.000000,500.000000) scale(0.100000,-0.100000)"
fill="#000000" stroke="none">
<path d="M130 2796 c0 -431 6 -490 63 -611 32 -66 106 -168 152 -208 85 -75
208 -136 303 -152 l42 -7 0 161 0 161 -62 31 c-80 39 -140 102 -170 176 -23
57 -23 63 -23 443 l0 385 -152 3 -153 3 0 -385z"/>
<path d="M1140 3173 c0 -5 -1 -177 -3 -383 -2 -370 -2 -376 -26 -435 -30 -76
-116 -164 -184 -190 l-47 -18 0 -164 0 -164 38 7 c56 10 160 53 220 91 137 86
234 220 279 383 16 57 18 113 18 470 l0 405 -147 3 c-82 1 -148 -1 -148 -5z"/>
<path d="M1747 3093 c-4 -3 -7 -249 -7 -545 l0 -538 243 0 c193 0 254 3 297
16 215 64 350 265 350 524 0 164 -53 301 -155 404 -116 118 -216 145 -526 146
-108 0 -199 -3 -202 -7z m490 -213 c61 -26 116 -82 147 -149 18 -40 21 -64 21
-181 0 -116 -3 -141 -21 -181 -30 -64 -79 -116 -138 -146 -46 -23 -63 -26
-171 -27 l-120 -1 -3 345 c-1 190 0 351 3 359 9 23 217 10 282 -19z"/>
<path d="M2927 2819 c-185 -44 -302 -254 -269 -487 21 -146 95 -257 210 -310
50 -24 69 -27 162 -27 92 0 112 3 160 26 70 32 123 78 145 125 16 35 16 36 -7
61 -26 29 -77 53 -110 53 -15 0 -31 -12 -45 -34 -57 -89 -211 -90 -279 -1 -16
21 -28 53 -32 80 l-5 45 257 0 256 0 0 78 c0 273 -199 449 -443 391z m159
-175 c24 -11 41 -32 60 -70 14 -29 23 -58 19 -63 -4 -7 -62 -11 -156 -11 -149
0 -149 0 -149 23 0 33 49 104 85 122 39 19 99 19 141 -1z"/>
<path d="M4267 2816 c-120 -35 -187 -125 -187 -249 0 -46 6 -73 23 -102 28
-50 95 -101 150 -115 95 -24 183 -54 200 -68 9 -9 17 -29 17 -47 0 -102 -190
-114 -240 -15 -11 21 -24 41 -29 44 -11 7 -138 -31 -146 -44 -14 -23 19 -97
64 -141 62 -62 136 -89 241 -89 187 0 310 104 310 262 0 129 -75 198 -266 247
-82 21 -127 47 -132 75 -19 94 128 132 184 48 13 -18 24 -37 26 -43 3 -9 131
15 155 29 21 13 -6 88 -48 136 -21 24 -58 51 -81 61 -57 23 -180 28 -241 11z"/>
<path d="M3340 2797 c0 -11 95 -281 215 -612 20 -55 42 -116 48 -135 l12 -35
97 -3 c85 -2 98 0 106 15 6 10 33 83 62 163 29 80 68 188 87 240 19 52 54 151
78 220 24 69 46 133 50 143 7 15 -2 17 -93 17 l-100 0 -20 -57 c-31 -90 -56
-166 -107 -325 -26 -82 -50 -148 -54 -148 -3 0 -45 118 -92 263 l-85 262 -102
3 c-80 2 -102 0 -102 -11z"/>
<path d="M713 2655 c-34 -16 -77 -79 -88 -132 -8 -41 10 -108 42 -149 65 -85
216 -60 259 43 20 47 17 127 -5 172 -19 37 -51 71 -51 55 0 -5 -4 -3 -9 5 -13
20 -108 24 -148 6z"/>
<path d="M4714 2185 c-12 -8 -27 -28 -34 -45 -38 -91 67 -179 142 -120 54 42
60 109 13 156 -28 28 -88 33 -121 9z"/>
</g>
</svg>
